<svg width="31" height="23" viewBox="0 0 31 23" fill="none" xmlns="http://www.w3.org/2000/svg">
<path d="M29.8805 7.61892C30.1125 7.43451 30.4575 7.60702 30.4575 7.89851V20.0637C30.4575 21.6401 29.1785 22.9191 27.6021 22.9191H2.85539C1.27898 22.9191 0 21.6401 0 20.0637V7.90446C0 7.60702 0.339078 7.44046 0.577027 7.62487C1.90954 8.65994 3.67632 9.97462 9.74402 14.3826C10.9992 15.2987 13.117 17.2261 15.2288 17.2142C17.3524 17.2321 19.5118 15.263 20.7194 14.3826C26.7871 9.97462 28.548 8.654 29.8805 7.61892ZM15.2288 15.3047C16.6089 15.3285 18.5957 13.5676 19.5951 12.8419C27.4891 7.11328 28.0899 6.61358 29.9102 5.18589C30.2552 4.91819 30.4575 4.50178 30.4575 4.06158V2.93132C30.4575 1.3549 29.1785 0.0759277 27.6021 0.0759277H2.85539C1.27898 0.0759277 0 1.3549 0 2.93132V4.06158C0 4.50178 0.202257 4.91224 0.547283 5.18589C2.36759 6.60763 2.96842 7.11328 10.8624 12.8419C11.8618 13.5676 13.8486 15.3285 15.2288 15.3047Z" fill="white"/>
</svg>
