<svg width="29" height="30" viewBox="0 0 29 30" fill="none" xmlns="http://www.w3.org/2000/svg">
<path d="M15.9468 8.77938C17.1003 8.77938 18.2066 9.23761 19.0222 10.0532C19.8378 10.8689 20.2961 11.9751 20.2961 13.1286C20.2961 13.5131 20.4488 13.8819 20.7207 14.1538C20.9926 14.4256 21.3613 14.5784 21.7458 14.5784C22.1303 14.5784 22.4991 14.4256 22.7709 14.1538C23.0428 13.8819 23.1956 13.5131 23.1956 13.1286C23.1956 11.2061 22.4319 9.3624 21.0725 8.00299C19.7131 6.64359 17.8693 5.87988 15.9468 5.87988C15.5623 5.87988 15.1936 6.03262 14.9217 6.30451C14.6498 6.57639 14.4971 6.94514 14.4971 7.32963C14.4971 7.71413 14.6498 8.08288 14.9217 8.35476C15.1936 8.62664 15.5623 8.77938 15.9468 8.77938Z" fill="white"/>
<path d="M15.9468 2.98043C18.6383 2.98043 21.2195 4.04962 23.1227 5.95279C25.0259 7.85595 26.0951 10.4372 26.0951 13.1287C26.0951 13.5132 26.2478 13.8819 26.5197 14.1538C26.7916 14.4257 27.1603 14.5784 27.5448 14.5784C27.9293 14.5784 28.2981 14.4257 28.5699 14.1538C28.8418 13.8819 28.9946 13.5132 28.9946 13.1287C28.9946 9.6682 27.6199 6.34946 25.173 3.90253C22.726 1.4556 19.4073 0.0809326 15.9468 0.0809326C15.5623 0.0809326 15.1936 0.233674 14.9217 0.505554C14.6498 0.777435 14.4971 1.14619 14.4971 1.53068C14.4971 1.91518 14.6498 2.28393 14.9217 2.55581C15.1936 2.82769 15.5623 2.98043 15.9468 2.98043Z" fill="white"/>
<path d="M28.6326 20.247C28.5528 20.0142 28.4152 19.8056 28.2326 19.6408C28.0499 19.4759 27.8284 19.3602 27.5887 19.3046L18.8902 17.3185C18.6541 17.2649 18.4084 17.2714 18.1754 17.3372C17.9424 17.4031 17.7296 17.5262 17.5565 17.6954C17.3535 17.8839 17.339 17.8984 16.3967 19.6961C13.2698 18.2552 10.7644 15.7395 9.33639 12.6068C11.1776 11.6789 11.1921 11.6789 11.3805 11.4615C11.5497 11.2883 11.6729 11.0755 11.7387 10.8425C11.8046 10.6096 11.811 10.3638 11.7575 10.1277L9.77131 1.53068C9.71571 1.29103 9.60004 1.06947 9.43518 0.886865C9.27032 0.704256 9.06171 0.566602 8.82898 0.486863C8.49041 0.365938 8.14079 0.278534 7.78516 0.225907C7.41873 0.140945 7.04482 0.0923847 6.66885 0.0809326C4.90016 0.0809326 3.20391 0.783542 1.95326 2.03419C0.702609 3.28485 0 4.98109 0 6.74978C0.00767196 12.6687 2.36235 18.343 6.54765 22.5283C10.733 26.7136 16.4072 29.0683 22.3261 29.0759C23.2019 29.0759 24.0691 28.9034 24.8782 28.5683C25.6873 28.2332 26.4225 27.7419 27.0417 27.1227C27.661 26.5034 28.1522 25.7682 28.4874 24.9591C28.8225 24.15 28.995 23.2828 28.995 22.4071C28.9954 22.0381 28.9664 21.6696 28.908 21.3053C28.8471 20.9452 28.7549 20.5911 28.6326 20.247Z" fill="white"/>
</svg>
