<svg xmlns="http://www.w3.org/2000/svg" version="1.1" xmlns:xlink="http://www.w3.org/1999/xlink" xmlns:svgjs="http://svgjs.dev/svgjs" width="2000" height="1247" viewBox="0 0 2000 1247"><g transform="matrix(1,0,0,1,-1.2121212121212466,0.504858299595071)"><svg viewBox="0 0 396 247" data-background-color="#d80900" preserveAspectRatio="xMidYMid meet" height="1247" width="2000" xmlns="http://www.w3.org/2000/svg" xmlns:xlink="http://www.w3.org/1999/xlink"><g id="tight-bounds" transform="matrix(1,0,0,1,0.2400000000000091,-0.09999999999999432)"><svg viewBox="0 0 395.52 247.2" height="247.2" width="395.52"><g><svg></svg></g><g><svg viewBox="0 0 395.52 247.2" height="247.2" width="395.52"><mask id="794d5916-f1fe-4db2-95fd-92c775218a97"><rect width="640" height="400" fill="white"></rect><g transform="matrix(1,0,0,1,39.55199999999999,103.57063617578179)"><svg viewBox="0 0 316.416 40.05872764843642" height="40.05872764843642" width="316.416"><g><svg viewBox="0 0 316.416 40.05872764843642" height="40.05872764843642" width="316.416"><g><svg viewBox="0 0 316.416 40.05872764843642" height="40.05872764843642" width="316.416"><g><svg viewBox="0 0 316.416 40.05872764843642" height="40.05872764843642" width="316.416"><g id="SvgjsG1122"><svg viewBox="0 0 316.416 40.05872764843642" height="40.05872764843642" width="316.416" id="SvgjsSvg1121"><g><svg viewBox="0 0 316.416 40.05872764843642" height="40.05872764843642" width="316.416"><g transform="matrix(1,0,0,1,0,0)"><svg width="316.416" viewBox="-0.25 -42.5 363.9200134277344 46.95000076293945" height="40.05872764843642" data-palette-color="#ffffff"><path d="M28.05-24.4Q28.05-21.75 26.8-19.4 25.55-17.05 22.8-15.58 20.05-14.1 15.75-14.1L15.75-14.1 9.45-14.1 9.45 0 3.75 0 3.75-34.75 15.75-34.75Q19.75-34.75 22.53-33.38 25.3-32 26.68-29.65 28.05-27.3 28.05-24.4L28.05-24.4ZM15.75-18.75Q19-18.75 20.6-20.23 22.2-21.7 22.2-24.4L22.2-24.4Q22.2-30.1 15.75-30.1L15.75-30.1 9.45-30.1 9.45-18.75 15.75-18.75ZM47.75-28Q50.9-28 53.37-26.65 55.85-25.3 57.27-22.65 58.7-20 58.7-16.25L58.7-16.25 58.7 0 53.05 0 53.05-15.4Q53.05-19.1 51.2-21.08 49.35-23.05 46.15-23.05L46.15-23.05Q42.95-23.05 41.07-21.08 39.2-19.1 39.2-15.4L39.2-15.4 39.2 0 33.5 0 33.5-37 39.2-37 39.2-24.35Q40.65-26.1 42.87-27.05 45.1-28 47.75-28L47.75-28ZM77.9 0.45Q74 0.45 70.85-1.33 67.7-3.1 65.9-6.33 64.1-9.55 64.1-13.8L64.1-13.8Q64.1-18 65.95-21.25 67.8-24.5 71-26.25 74.2-28 78.15-28L78.15-28Q82.1-28 85.3-26.25 88.5-24.5 90.35-21.25 92.2-18 92.2-13.8L92.2-13.8Q92.2-9.6 90.3-6.35 88.4-3.1 85.12-1.33 81.85 0.45 77.9 0.45L77.9 0.45ZM77.9-4.5Q80.1-4.5 82.02-5.55 83.95-6.6 85.15-8.7 86.35-10.8 86.35-13.8L86.35-13.8Q86.35-16.8 85.2-18.88 84.05-20.95 82.15-22 80.25-23.05 78.05-23.05L78.05-23.05Q75.85-23.05 73.97-22 72.1-20.95 71-18.88 69.9-16.8 69.9-13.8L69.9-13.8Q69.9-9.35 72.17-6.93 74.45-4.5 77.9-4.5L77.9-4.5ZM123.09-14.45Q123.09-12.9 122.89-11.65L122.89-11.65 101.84-11.65Q102.09-8.35 104.29-6.35 106.49-4.35 109.69-4.35L109.69-4.35Q114.29-4.35 116.19-8.2L116.19-8.2 122.34-8.2Q121.09-4.4 117.82-1.98 114.54 0.45 109.69 0.45L109.69 0.45Q105.74 0.45 102.62-1.33 99.49-3.1 97.72-6.33 95.94-9.55 95.94-13.8L95.94-13.8Q95.94-18.05 97.67-21.28 99.39-24.5 102.52-26.25 105.64-28 109.69-28L109.69-28Q113.59-28 116.64-26.3 119.69-24.6 121.39-21.53 123.09-18.45 123.09-14.45L123.09-14.45ZM101.89-16.25L117.14-16.25Q117.09-19.4 114.89-21.3 112.69-23.2 109.44-23.2L109.44-23.2Q106.49-23.2 104.39-21.33 102.29-19.45 101.89-16.25L101.89-16.25ZM142.59-28Q145.84-28 148.42-26.65 150.99-25.3 152.44-22.65 153.89-20 153.89-16.25L153.89-16.25 153.89 0 148.24 0 148.24-15.4Q148.24-19.1 146.39-21.08 144.54-23.05 141.34-23.05L141.34-23.05Q138.14-23.05 136.27-21.08 134.39-19.1 134.39-15.4L134.39-15.4 134.39 0 128.69 0 128.69-27.55 134.39-27.55 134.39-24.4Q135.79-26.1 137.97-27.05 140.14-28 142.59-28L142.59-28ZM164.04-31.2Q162.49-31.2 161.44-32.25 160.39-33.3 160.39-34.85L160.39-34.85Q160.39-36.4 161.44-37.45 162.49-38.5 164.04-38.5L164.04-38.5Q165.54-38.5 166.59-37.45 167.64-36.4 167.64-34.85L167.64-34.85Q167.64-33.3 166.59-32.25 165.54-31.2 164.04-31.2L164.04-31.2ZM161.14-27.55L166.84-27.55 166.84 0 161.14 0 161.14-27.55ZM195.04-27.55L186.14-13.95 195.04 0 188.59 0 182.64-9.35 177.04 0 171.09 0 179.99-13.55 171.09-27.55 177.54-27.55 183.49-18.2 189.09-27.55 195.04-27.55ZM234.33-34.75L240.03-34.75 240.03 0 234.33 0 234.33-15.2 217.98-15.2 217.98 0 212.28 0 212.28-34.75 217.98-34.75 217.98-19.85 234.33-19.85 234.33-34.75ZM245.63-13.9Q245.63-18.05 247.35-21.25 249.08-24.45 252.05-26.23 255.03-28 258.63-28L258.63-28Q261.88-28 264.3-26.73 266.73-25.45 268.18-23.55L268.18-23.55 268.18-27.55 273.93-27.55 273.93 0 268.18 0 268.18-4.1Q266.73-2.15 264.23-0.85 261.73 0.45 258.53 0.45L258.53 0.45Q254.98 0.45 252.03-1.38 249.08-3.2 247.35-6.48 245.63-9.75 245.63-13.9L245.63-13.9ZM268.18-13.8Q268.18-16.65 267-18.75 265.83-20.85 263.93-21.95 262.03-23.05 259.83-23.05L259.83-23.05Q257.63-23.05 255.73-21.98 253.83-20.9 252.65-18.82 251.48-16.75 251.48-13.9L251.48-13.9Q251.48-11.05 252.65-8.9 253.83-6.75 255.75-5.63 257.68-4.5 259.83-4.5L259.83-4.5Q262.03-4.5 263.93-5.6 265.83-6.7 267-8.83 268.18-10.95 268.18-13.8L268.18-13.8ZM279.53-13.8Q279.53-18.05 281.25-21.28 282.98-24.5 286.03-26.25 289.07-28 293.03-28L293.03-28Q298.03-28 301.3-25.63 304.57-23.25 305.73-18.85L305.73-18.85 299.57-18.85Q298.82-20.9 297.18-22.05 295.53-23.2 293.03-23.2L293.03-23.2Q289.53-23.2 287.45-20.73 285.38-18.25 285.38-13.8L285.38-13.8Q285.38-9.35 287.45-6.85 289.53-4.35 293.03-4.35L293.03-4.35Q297.98-4.35 299.57-8.7L299.57-8.7 305.73-8.7Q304.53-4.5 301.23-2.02 297.93 0.45 293.03 0.45L293.03 0.45Q289.07 0.45 286.03-1.33 282.98-3.1 281.25-6.33 279.53-9.55 279.53-13.8L279.53-13.8ZM335.02-27.55L322.32-13.75 335.02 0 327.32 0 317.12-11.85 317.12 0 311.42 0 311.42-37 317.12-37 317.12-15.5 327.12-27.55 335.02-27.55ZM349.12 0.45Q345.87 0.45 343.3-0.73 340.72-1.9 339.22-3.93 337.72-5.95 337.62-8.45L337.62-8.45 343.52-8.45Q343.67-6.7 345.19-5.53 346.72-4.35 349.02-4.35L349.02-4.35Q351.42-4.35 352.75-5.28 354.07-6.2 354.07-7.65L354.07-7.65Q354.07-9.2 352.6-9.95 351.12-10.7 347.92-11.6L347.92-11.6Q344.82-12.45 342.87-13.25 340.92-14.05 339.5-15.7 338.07-17.35 338.07-20.05L338.07-20.05Q338.07-22.25 339.37-24.08 340.67-25.9 343.1-26.95 345.52-28 348.67-28L348.67-28Q353.37-28 356.25-25.63 359.12-23.25 359.32-19.15L359.32-19.15 353.62-19.15Q353.47-21 352.12-22.1 350.77-23.2 348.47-23.2L348.47-23.2Q346.22-23.2 345.02-22.35 343.82-21.5 343.82-20.1L343.82-20.1Q343.82-19 344.62-18.25 345.42-17.5 346.57-17.07 347.72-16.65 349.97-16L349.97-16Q352.97-15.2 354.89-14.38 356.82-13.55 358.22-11.95 359.62-10.35 359.67-7.7L359.67-7.7Q359.67-5.35 358.37-3.5 357.07-1.65 354.69-0.6 352.32 0.45 349.12 0.45L349.12 0.45Z" opacity="1" transform="matrix(1,0,0,1,0,0)" fill="black" class="wordmark-text-0" id="SvgjsPath1120" stroke-width="7" stroke="black" stroke-linejoin="round"></path></svg></g></svg></g></svg></g></svg></g></svg></g></svg></g></svg></g></mask><g transform="matrix(1,0,0,1,39.55199999999999,103.57063617578179)"><svg viewBox="0 0 316.416 40.05872764843642" height="40.05872764843642" width="316.416"><g><svg viewBox="0 0 316.416 40.05872764843642" height="40.05872764843642" width="316.416"><g><svg viewBox="0 0 316.416 40.05872764843642" height="40.05872764843642" width="316.416"><g><svg viewBox="0 0 316.416 40.05872764843642" height="40.05872764843642" width="316.416"><g id="textblocktransform"><svg viewBox="0 0 316.416 40.05872764843642" height="40.05872764843642" width="316.416" id="textblock"><g><svg viewBox="0 0 316.416 40.05872764843642" height="40.05872764843642" width="316.416"><g transform="matrix(1,0,0,1,0,0)"><svg width="316.416" viewBox="-0.25 -42.5 363.9200134277344 46.95000076293945" height="40.05872764843642" data-palette-color="#ffffff"><path d="M28.05-24.4Q28.05-21.75 26.8-19.4 25.55-17.05 22.8-15.58 20.05-14.1 15.75-14.1L15.75-14.1 9.45-14.1 9.45 0 3.75 0 3.75-34.75 15.75-34.75Q19.75-34.75 22.53-33.38 25.3-32 26.68-29.65 28.05-27.3 28.05-24.4L28.05-24.4ZM15.75-18.75Q19-18.75 20.6-20.23 22.2-21.7 22.2-24.4L22.2-24.4Q22.2-30.1 15.75-30.1L15.75-30.1 9.45-30.1 9.45-18.75 15.75-18.75ZM47.75-28Q50.9-28 53.37-26.65 55.85-25.3 57.27-22.65 58.7-20 58.7-16.25L58.7-16.25 58.7 0 53.05 0 53.05-15.4Q53.05-19.1 51.2-21.08 49.35-23.05 46.15-23.05L46.15-23.05Q42.95-23.05 41.07-21.08 39.2-19.1 39.2-15.4L39.2-15.4 39.2 0 33.5 0 33.5-37 39.2-37 39.2-24.35Q40.65-26.1 42.87-27.05 45.1-28 47.75-28L47.75-28ZM77.9 0.45Q74 0.45 70.85-1.33 67.7-3.1 65.9-6.33 64.1-9.55 64.1-13.8L64.1-13.8Q64.1-18 65.95-21.25 67.8-24.5 71-26.25 74.2-28 78.15-28L78.15-28Q82.1-28 85.3-26.25 88.5-24.5 90.35-21.25 92.2-18 92.2-13.8L92.2-13.8Q92.2-9.6 90.3-6.35 88.4-3.1 85.12-1.33 81.85 0.45 77.9 0.45L77.9 0.45ZM77.9-4.5Q80.1-4.5 82.02-5.55 83.95-6.6 85.15-8.7 86.35-10.8 86.35-13.8L86.35-13.8Q86.35-16.8 85.2-18.88 84.05-20.95 82.15-22 80.25-23.05 78.05-23.05L78.05-23.05Q75.85-23.05 73.97-22 72.1-20.95 71-18.88 69.9-16.8 69.9-13.8L69.9-13.8Q69.9-9.35 72.17-6.93 74.45-4.5 77.9-4.5L77.9-4.5ZM123.09-14.45Q123.09-12.9 122.89-11.65L122.89-11.65 101.84-11.65Q102.09-8.35 104.29-6.35 106.49-4.35 109.69-4.35L109.69-4.35Q114.29-4.35 116.19-8.2L116.19-8.2 122.34-8.2Q121.09-4.4 117.82-1.98 114.54 0.45 109.69 0.45L109.69 0.45Q105.74 0.45 102.62-1.33 99.49-3.1 97.72-6.33 95.94-9.55 95.94-13.8L95.94-13.8Q95.94-18.05 97.67-21.28 99.39-24.5 102.52-26.25 105.64-28 109.69-28L109.69-28Q113.59-28 116.64-26.3 119.69-24.6 121.39-21.53 123.09-18.45 123.09-14.45L123.09-14.45ZM101.89-16.25L117.14-16.25Q117.09-19.4 114.89-21.3 112.69-23.2 109.44-23.2L109.44-23.2Q106.49-23.2 104.39-21.33 102.29-19.45 101.89-16.25L101.89-16.25ZM142.59-28Q145.84-28 148.42-26.65 150.99-25.3 152.44-22.65 153.89-20 153.89-16.25L153.89-16.25 153.89 0 148.24 0 148.24-15.4Q148.24-19.1 146.39-21.08 144.54-23.05 141.34-23.05L141.34-23.05Q138.14-23.05 136.27-21.08 134.39-19.1 134.39-15.4L134.39-15.4 134.39 0 128.69 0 128.69-27.55 134.39-27.55 134.39-24.4Q135.79-26.1 137.97-27.05 140.14-28 142.59-28L142.59-28ZM164.04-31.2Q162.49-31.2 161.44-32.25 160.39-33.3 160.39-34.85L160.39-34.85Q160.39-36.4 161.44-37.45 162.49-38.5 164.04-38.5L164.04-38.5Q165.54-38.5 166.59-37.45 167.64-36.4 167.64-34.85L167.64-34.85Q167.64-33.3 166.59-32.25 165.54-31.2 164.04-31.2L164.04-31.2ZM161.14-27.55L166.84-27.55 166.84 0 161.14 0 161.14-27.55ZM195.04-27.55L186.14-13.95 195.04 0 188.59 0 182.64-9.35 177.04 0 171.09 0 179.99-13.55 171.09-27.55 177.54-27.55 183.49-18.2 189.09-27.55 195.04-27.55ZM234.33-34.75L240.03-34.75 240.03 0 234.33 0 234.33-15.2 217.98-15.2 217.98 0 212.28 0 212.28-34.75 217.98-34.75 217.98-19.85 234.33-19.85 234.33-34.75ZM245.63-13.9Q245.63-18.05 247.35-21.25 249.08-24.45 252.05-26.23 255.03-28 258.63-28L258.63-28Q261.88-28 264.3-26.73 266.73-25.45 268.18-23.55L268.18-23.55 268.18-27.55 273.93-27.55 273.93 0 268.18 0 268.18-4.1Q266.73-2.15 264.23-0.85 261.73 0.45 258.53 0.45L258.53 0.45Q254.98 0.45 252.03-1.38 249.08-3.2 247.35-6.48 245.63-9.75 245.63-13.9L245.63-13.9ZM268.18-13.8Q268.18-16.65 267-18.75 265.83-20.85 263.93-21.95 262.03-23.05 259.83-23.05L259.83-23.05Q257.63-23.05 255.73-21.98 253.83-20.9 252.65-18.82 251.48-16.75 251.48-13.9L251.48-13.9Q251.48-11.05 252.65-8.9 253.83-6.75 255.75-5.63 257.68-4.5 259.83-4.5L259.83-4.5Q262.03-4.5 263.93-5.6 265.83-6.7 267-8.83 268.18-10.95 268.18-13.8L268.18-13.8ZM279.53-13.8Q279.53-18.05 281.25-21.28 282.98-24.5 286.03-26.25 289.07-28 293.03-28L293.03-28Q298.03-28 301.3-25.63 304.57-23.25 305.73-18.85L305.73-18.85 299.57-18.85Q298.82-20.9 297.18-22.05 295.53-23.2 293.03-23.2L293.03-23.2Q289.53-23.2 287.45-20.73 285.38-18.25 285.38-13.8L285.38-13.8Q285.38-9.35 287.45-6.85 289.53-4.35 293.03-4.35L293.03-4.35Q297.98-4.35 299.57-8.7L299.57-8.7 305.73-8.7Q304.53-4.5 301.23-2.02 297.93 0.45 293.03 0.45L293.03 0.45Q289.07 0.45 286.03-1.33 282.98-3.1 281.25-6.33 279.53-9.55 279.53-13.8L279.53-13.8ZM335.02-27.55L322.32-13.75 335.02 0 327.32 0 317.12-11.85 317.12 0 311.42 0 311.42-37 317.12-37 317.12-15.5 327.12-27.55 335.02-27.55ZM349.12 0.45Q345.87 0.45 343.3-0.73 340.72-1.9 339.22-3.93 337.72-5.95 337.62-8.45L337.62-8.45 343.52-8.45Q343.67-6.7 345.19-5.53 346.72-4.35 349.02-4.35L349.02-4.35Q351.42-4.35 352.75-5.28 354.07-6.2 354.07-7.65L354.07-7.65Q354.07-9.2 352.6-9.95 351.12-10.7 347.92-11.6L347.92-11.6Q344.82-12.45 342.87-13.25 340.92-14.05 339.5-15.7 338.07-17.35 338.07-20.05L338.07-20.05Q338.07-22.25 339.37-24.08 340.67-25.9 343.1-26.95 345.52-28 348.67-28L348.67-28Q353.37-28 356.25-25.63 359.12-23.25 359.32-19.15L359.32-19.15 353.62-19.15Q353.47-21 352.12-22.1 350.77-23.2 348.47-23.2L348.47-23.2Q346.22-23.2 345.02-22.35 343.82-21.5 343.82-20.1L343.82-20.1Q343.82-19 344.62-18.25 345.42-17.5 346.57-17.07 347.72-16.65 349.97-16L349.97-16Q352.97-15.2 354.89-14.38 356.82-13.55 358.22-11.95 359.62-10.35 359.67-7.7L359.67-7.7Q359.67-5.35 358.37-3.5 357.07-1.65 354.69-0.6 352.32 0.45 349.12 0.45L349.12 0.45Z" opacity="1" transform="matrix(1,0,0,1,0,0)" fill="#ffffff" class="wordmark-text-0" data-fill-palette-color="primary" id="text-0"></path></svg></g></svg></g></svg></g></svg></g></svg></g></svg></g></svg></g><g mask="url(#794d5916-f1fe-4db2-95fd-92c775218a97)"><g transform="matrix(17.595192497641527, 0, 0, 17.595192497641527, 1, 13.686352458841625)"><svg xmlns="http://www.w3.org/2000/svg" xmlns:xlink="http://www.w3.org/1999/xlink" xml:space="preserve" style="shape-rendering:geometricPrecision;text-rendering:geometricPrecision;image-rendering:optimizeQuality;" viewBox="0 0 22.36520004272461 12.493599891662598" x="0" y="0" fill-rule="evenodd" clip-rule="evenodd" width="22.36520004272461" height="12.493599891662598" class="icon-none" data-fill-palette-color="accent" id="none"><g fill="#ffffff" data-fill-palette-color="accent"><path class="" d="M0 12.494c5.857-5.259 13.281-1.595 18.742-3.933-6.92 3.782-12.879-0.562-18.742 3.933z" fill="#ffffff" data-fill-palette-color="accent"></path><path class="" d="M19.619 8.252c0.536 0.267 0.956 0.402 1.312 0.413-0.142-0.134-0.272-0.345-0.223-0.863 0.042 0.385 0.241 0.632 0.483 0.873 0.078 0.004 0.152 0.011 0.224 0.022-0.048-0.116-0.07-0.291-0.044-0.578 0.029 0.266 0.133 0.466 0.275 0.644 0.194 0.084 0.366 0.248 0.53 0.575 0.104 0.052 0.147 0.173 0.189 0.262-2.205-0.698-5.905 0.427-7.965 0.873 2.293-0.641 4.157-1.933 7.637-1.14-0.591-0.735-1.529-0.189-2.418-1.081z" fill="#ffffff" fill-rule="nonzero" data-fill-palette-color="accent"></path><path class="" d="M12.768 0c0.236 5.821 5.383 5.429 6.807 8.518-0.406-3.688-5.122-2.857-6.807-8.518z" fill="#ffffff" data-fill-palette-color="accent"></path><path class="" d="M13.918 3.834c0.341 3.173 3.687 2.75 5.013 4.304-0.498-1.728-3.887-1.781-5.013-4.304z" fill="#ffffff" data-fill-palette-color="accent"></path><path class="" d="M13.772 4.909c0.33 2.685 3.317 2.303 4.362 3.589-0.418-1.454-3.448-1.475-4.362-3.589z" fill="#ffffff" data-fill-palette-color="accent"></path><path class="" d="M13.985 6.049c0.375 2.028 2.631 1.599 3.487 2.53-0.385-1.088-2.693-0.963-3.487-2.53z" fill="#ffffff" data-fill-palette-color="accent"></path><path class="" d="M16.844 8.598c-0.91-0.03-1.895-0.298-1.833-0.889 0.088-0.096 1.533 0.469 1.833 0.889z" fill="#ffffff" data-fill-palette-color="accent"></path><path class="" d="M11.205 6.017c0.313 3.685 3.475 2.886 5.587 2.85-2.783-0.799-4.415 0.169-5.587-2.85z" fill="#ffffff" data-fill-palette-color="accent"></path><path class="" d="M10.407 6.162c-0.266 3.712 3.999 2.967 4.39 3.071-1.732-0.544-3.734 0.101-4.39-3.071z" fill="#ffffff" data-fill-palette-color="accent"></path></g></svg></g></g></svg></g><defs></defs></svg><rect width="395.52" height="247.2" fill="none" stroke="none" visibility="hidden"></rect></g></svg></g></svg>